<mxfile host="app.diagrams.net" modified="2024-05-14T15:43:09.711Z" agent="Mozilla/5.0 (Windows NT 10.0; Win64; x64) AppleWebKit/537.36 (KHTML, like Gecko) Chrome/124.0.0.0 Safari/537.36 Edg/124.0.0.0" etag="DaU9zCtOQvpZPXtIKvIc" version="24.4.0" type="device">
  <diagram name="Page-1" id="eQaII3qxKSDWH1W4bTBe">
    <mxGraphModel dx="1042" dy="577" grid="1" gridSize="10" guides="1" tooltips="1" connect="1" arrows="1" fold="1" page="1" pageScale="1" pageWidth="850" pageHeight="1100" math="0" shadow="0">
      <root>
        <mxCell id="0" />
        <mxCell id="1" parent="0" />
        <mxCell id="O49vUyPkRiIR8w3HlRlj-6" value="" style="rounded=0;whiteSpace=wrap;html=1;" parent="1" vertex="1">
          <mxGeometry x="160" y="210" width="500" height="290" as="geometry" />
        </mxCell>
        <mxCell id="O49vUyPkRiIR8w3HlRlj-53" style="edgeStyle=orthogonalEdgeStyle;rounded=0;orthogonalLoop=1;jettySize=auto;html=1;" parent="1" edge="1">
          <mxGeometry relative="1" as="geometry">
            <mxPoint x="260" y="110" as="targetPoint" />
            <mxPoint x="360" y="110" as="sourcePoint" />
          </mxGeometry>
        </mxCell>
        <mxCell id="O49vUyPkRiIR8w3HlRlj-61" style="edgeStyle=orthogonalEdgeStyle;rounded=0;orthogonalLoop=1;jettySize=auto;html=1;exitX=0.25;exitY=1;exitDx=0;exitDy=0;entryX=0.25;entryY=0;entryDx=0;entryDy=0;" parent="1" source="O49vUyPkRiIR8w3HlRlj-1" target="O49vUyPkRiIR8w3HlRlj-11" edge="1">
          <mxGeometry relative="1" as="geometry" />
        </mxCell>
        <mxCell id="O49vUyPkRiIR8w3HlRlj-62" value="Send&lt;div&gt;request&lt;/div&gt;&lt;div&gt;data&lt;/div&gt;" style="edgeLabel;html=1;align=center;verticalAlign=middle;resizable=0;points=[];" parent="O49vUyPkRiIR8w3HlRlj-61" vertex="1" connectable="0">
          <mxGeometry x="-0.1889" y="-1" relative="1" as="geometry">
            <mxPoint as="offset" />
          </mxGeometry>
        </mxCell>
        <mxCell id="O49vUyPkRiIR8w3HlRlj-1" value="Flask" style="whiteSpace=wrap;html=1;aspect=fixed;" parent="1" vertex="1">
          <mxGeometry x="370" y="40" width="80" height="80" as="geometry" />
        </mxCell>
        <mxCell id="O49vUyPkRiIR8w3HlRlj-2" value="Trello API" style="whiteSpace=wrap;html=1;aspect=fixed;" parent="1" vertex="1">
          <mxGeometry x="565" y="40" width="80" height="80" as="geometry" />
        </mxCell>
        <mxCell id="O49vUyPkRiIR8w3HlRlj-3" value="To do app website application code component diagram" style="text;html=1;align=center;verticalAlign=middle;whiteSpace=wrap;rounded=0;" parent="1" vertex="1">
          <mxGeometry x="10" y="30" width="110" height="30" as="geometry" />
        </mxCell>
        <mxCell id="O49vUyPkRiIR8w3HlRlj-7" value="Application code" style="text;html=1;align=center;verticalAlign=middle;whiteSpace=wrap;rounded=0;" parent="1" vertex="1">
          <mxGeometry x="510" y="330" width="110" height="30" as="geometry" />
        </mxCell>
        <mxCell id="O49vUyPkRiIR8w3HlRlj-10" value="View model&lt;div&gt;&lt;font style=&quot;font-size: 10px;&quot;&gt;(view_model.py)&lt;/font&gt;&lt;/div&gt;" style="whiteSpace=wrap;html=1;aspect=fixed;" parent="1" vertex="1">
          <mxGeometry x="260" y="390" width="80" height="80" as="geometry" />
        </mxCell>
        <mxCell id="O49vUyPkRiIR8w3HlRlj-19" style="edgeStyle=orthogonalEdgeStyle;rounded=0;orthogonalLoop=1;jettySize=auto;html=1;exitX=0;exitY=0.5;exitDx=0;exitDy=0;entryX=0.5;entryY=0;entryDx=0;entryDy=0;" parent="1" source="O49vUyPkRiIR8w3HlRlj-11" target="O49vUyPkRiIR8w3HlRlj-10" edge="1">
          <mxGeometry relative="1" as="geometry" />
        </mxCell>
        <mxCell id="O49vUyPkRiIR8w3HlRlj-20" value="Allocate items" style="edgeLabel;html=1;align=center;verticalAlign=middle;resizable=0;points=[];" parent="O49vUyPkRiIR8w3HlRlj-19" vertex="1" connectable="0">
          <mxGeometry x="-0.0843" y="1" relative="1" as="geometry">
            <mxPoint x="-1" y="49" as="offset" />
          </mxGeometry>
        </mxCell>
        <mxCell id="O49vUyPkRiIR8w3HlRlj-35" style="edgeStyle=orthogonalEdgeStyle;rounded=0;orthogonalLoop=1;jettySize=auto;html=1;exitX=0.25;exitY=1;exitDx=0;exitDy=0;entryX=0.25;entryY=0;entryDx=0;entryDy=0;" parent="1" source="O49vUyPkRiIR8w3HlRlj-11" target="O49vUyPkRiIR8w3HlRlj-12" edge="1">
          <mxGeometry relative="1" as="geometry">
            <mxPoint x="440" y="320" as="sourcePoint" />
            <mxPoint x="420" y="400" as="targetPoint" />
            <Array as="points" />
          </mxGeometry>
        </mxCell>
        <mxCell id="O49vUyPkRiIR8w3HlRlj-64" value="Send&lt;div&gt;request&lt;/div&gt;&lt;div&gt;data&lt;/div&gt;" style="edgeLabel;html=1;align=center;verticalAlign=middle;resizable=0;points=[];" parent="O49vUyPkRiIR8w3HlRlj-35" vertex="1" connectable="0">
          <mxGeometry x="-0.2212" relative="1" as="geometry">
            <mxPoint y="8" as="offset" />
          </mxGeometry>
        </mxCell>
        <mxCell id="O49vUyPkRiIR8w3HlRlj-42" style="edgeStyle=orthogonalEdgeStyle;rounded=0;orthogonalLoop=1;jettySize=auto;html=1;exitX=0.128;exitY=0.017;exitDx=0;exitDy=0;exitPerimeter=0;" parent="1" edge="1">
          <mxGeometry relative="1" as="geometry">
            <mxPoint x="430" y="118.64" as="targetPoint" />
            <mxPoint x="430.24" y="239.9999999999999" as="sourcePoint" />
          </mxGeometry>
        </mxCell>
        <mxCell id="O49vUyPkRiIR8w3HlRlj-63" value="Receive&lt;div&gt;request&lt;/div&gt;&lt;div&gt;data&lt;/div&gt;" style="edgeLabel;html=1;align=center;verticalAlign=middle;resizable=0;points=[];" parent="O49vUyPkRiIR8w3HlRlj-42" vertex="1" connectable="0">
          <mxGeometry x="0.2584" y="-2" relative="1" as="geometry">
            <mxPoint y="6" as="offset" />
          </mxGeometry>
        </mxCell>
        <mxCell id="O49vUyPkRiIR8w3HlRlj-11" value="Flask routes &lt;font style=&quot;font-size: 10px;&quot;&gt;(app.py)&lt;/font&gt;" style="whiteSpace=wrap;html=1;aspect=fixed;" parent="1" vertex="1">
          <mxGeometry x="370" y="240" width="80" height="80" as="geometry" />
        </mxCell>
        <mxCell id="O49vUyPkRiIR8w3HlRlj-23" style="edgeStyle=orthogonalEdgeStyle;rounded=0;orthogonalLoop=1;jettySize=auto;html=1;entryX=0;entryY=0.25;entryDx=0;entryDy=0;exitX=1;exitY=0.25;exitDx=0;exitDy=0;" parent="1" source="O49vUyPkRiIR8w3HlRlj-1" target="O49vUyPkRiIR8w3HlRlj-2" edge="1">
          <mxGeometry relative="1" as="geometry" />
        </mxCell>
        <mxCell id="O49vUyPkRiIR8w3HlRlj-24" value="GET request" style="edgeLabel;html=1;align=center;verticalAlign=middle;resizable=0;points=[];" parent="O49vUyPkRiIR8w3HlRlj-23" vertex="1" connectable="0">
          <mxGeometry x="-0.1417" relative="1" as="geometry">
            <mxPoint as="offset" />
          </mxGeometry>
        </mxCell>
        <mxCell id="O49vUyPkRiIR8w3HlRlj-39" style="edgeStyle=orthogonalEdgeStyle;rounded=0;orthogonalLoop=1;jettySize=auto;html=1;entryX=0;entryY=0.75;entryDx=0;entryDy=0;exitX=1;exitY=0.75;exitDx=0;exitDy=0;" parent="1" source="O49vUyPkRiIR8w3HlRlj-1" target="O49vUyPkRiIR8w3HlRlj-2" edge="1">
          <mxGeometry relative="1" as="geometry">
            <mxPoint x="460" y="90" as="sourcePoint" />
          </mxGeometry>
        </mxCell>
        <mxCell id="O49vUyPkRiIR8w3HlRlj-40" value="POST request" style="edgeLabel;html=1;align=center;verticalAlign=middle;resizable=0;points=[];" parent="O49vUyPkRiIR8w3HlRlj-39" vertex="1" connectable="0">
          <mxGeometry x="-0.0752" y="-3" relative="1" as="geometry">
            <mxPoint as="offset" />
          </mxGeometry>
        </mxCell>
        <mxCell id="O49vUyPkRiIR8w3HlRlj-12" value="Item functions&lt;div&gt;&lt;font style=&quot;font-size: 10px;&quot;&gt;(trello_items.py,&lt;/font&gt;&lt;/div&gt;&lt;div&gt;&lt;font style=&quot;font-size: 10px;&quot;&gt;item.py)&lt;/font&gt;&lt;/div&gt;" style="whiteSpace=wrap;html=1;aspect=fixed;" parent="1" vertex="1">
          <mxGeometry x="370" y="390" width="80" height="80" as="geometry" />
        </mxCell>
        <mxCell id="O49vUyPkRiIR8w3HlRlj-58" style="edgeStyle=orthogonalEdgeStyle;rounded=0;orthogonalLoop=1;jettySize=auto;html=1;exitX=1;exitY=0.25;exitDx=0;exitDy=0;entryX=0;entryY=0.25;entryDx=0;entryDy=0;" parent="1" source="O49vUyPkRiIR8w3HlRlj-13" target="O49vUyPkRiIR8w3HlRlj-11" edge="1">
          <mxGeometry relative="1" as="geometry" />
        </mxCell>
        <mxCell id="O49vUyPkRiIR8w3HlRlj-59" value="Render HTML" style="edgeLabel;html=1;align=center;verticalAlign=middle;resizable=0;points=[];" parent="O49vUyPkRiIR8w3HlRlj-58" vertex="1" connectable="0">
          <mxGeometry x="-0.2286" relative="1" as="geometry">
            <mxPoint x="11" as="offset" />
          </mxGeometry>
        </mxCell>
        <mxCell id="O49vUyPkRiIR8w3HlRlj-13" value="HTML template&lt;div&gt;&lt;font style=&quot;font-size: 10px;&quot;&gt;(index.html,&lt;/font&gt;&lt;/div&gt;&lt;div&gt;&lt;font style=&quot;font-size: 10px;&quot;&gt;layout.html)&lt;/font&gt;&lt;/div&gt;" style="whiteSpace=wrap;html=1;aspect=fixed;" parent="1" vertex="1">
          <mxGeometry x="180" y="240" width="80" height="80" as="geometry" />
        </mxCell>
        <mxCell id="O49vUyPkRiIR8w3HlRlj-45" style="edgeStyle=orthogonalEdgeStyle;rounded=0;orthogonalLoop=1;jettySize=auto;html=1;exitX=0.586;exitY=0.009;exitDx=0;exitDy=0;entryX=-0.004;entryY=0.598;entryDx=0;entryDy=0;entryPerimeter=0;exitPerimeter=0;" parent="1" source="O49vUyPkRiIR8w3HlRlj-10" target="O49vUyPkRiIR8w3HlRlj-11" edge="1">
          <mxGeometry relative="1" as="geometry" />
        </mxCell>
        <mxCell id="O49vUyPkRiIR8w3HlRlj-46" style="edgeStyle=orthogonalEdgeStyle;rounded=0;orthogonalLoop=1;jettySize=auto;html=1;exitX=0.75;exitY=0;exitDx=0;exitDy=0;entryX=0.75;entryY=1;entryDx=0;entryDy=0;" parent="1" source="O49vUyPkRiIR8w3HlRlj-12" target="O49vUyPkRiIR8w3HlRlj-11" edge="1">
          <mxGeometry relative="1" as="geometry" />
        </mxCell>
        <mxCell id="O49vUyPkRiIR8w3HlRlj-65" value="Receive&lt;div&gt;request&lt;/div&gt;&lt;div&gt;data&lt;/div&gt;" style="edgeLabel;html=1;align=center;verticalAlign=middle;resizable=0;points=[];" parent="O49vUyPkRiIR8w3HlRlj-46" vertex="1" connectable="0">
          <mxGeometry x="0.1069" y="-1" relative="1" as="geometry">
            <mxPoint y="4" as="offset" />
          </mxGeometry>
        </mxCell>
        <mxCell id="O49vUyPkRiIR8w3HlRlj-48" style="edgeStyle=orthogonalEdgeStyle;rounded=0;orthogonalLoop=1;jettySize=auto;html=1;exitX=0.5;exitY=1;exitDx=0;exitDy=0;" parent="1" source="O49vUyPkRiIR8w3HlRlj-3" target="O49vUyPkRiIR8w3HlRlj-3" edge="1">
          <mxGeometry relative="1" as="geometry" />
        </mxCell>
        <mxCell id="O49vUyPkRiIR8w3HlRlj-50" style="edgeStyle=orthogonalEdgeStyle;rounded=0;orthogonalLoop=1;jettySize=auto;html=1;exitX=1;exitY=0.25;exitDx=0;exitDy=0;entryX=0;entryY=0.25;entryDx=0;entryDy=0;" parent="1" source="O49vUyPkRiIR8w3HlRlj-49" target="O49vUyPkRiIR8w3HlRlj-1" edge="1">
          <mxGeometry relative="1" as="geometry" />
        </mxCell>
        <mxCell id="O49vUyPkRiIR8w3HlRlj-54" value="GET request" style="edgeLabel;html=1;align=center;verticalAlign=middle;resizable=0;points=[];" parent="O49vUyPkRiIR8w3HlRlj-50" vertex="1" connectable="0">
          <mxGeometry x="-0.1731" y="1" relative="1" as="geometry">
            <mxPoint as="offset" />
          </mxGeometry>
        </mxCell>
        <mxCell id="O49vUyPkRiIR8w3HlRlj-51" style="edgeStyle=orthogonalEdgeStyle;rounded=0;orthogonalLoop=1;jettySize=auto;html=1;exitX=1;exitY=0.75;exitDx=0;exitDy=0;entryX=0;entryY=0.75;entryDx=0;entryDy=0;" parent="1" source="O49vUyPkRiIR8w3HlRlj-49" target="O49vUyPkRiIR8w3HlRlj-1" edge="1">
          <mxGeometry relative="1" as="geometry" />
        </mxCell>
        <mxCell id="O49vUyPkRiIR8w3HlRlj-55" value="POST request" style="edgeLabel;html=1;align=center;verticalAlign=middle;resizable=0;points=[];" parent="O49vUyPkRiIR8w3HlRlj-51" vertex="1" connectable="0">
          <mxGeometry x="-0.2153" relative="1" as="geometry">
            <mxPoint as="offset" />
          </mxGeometry>
        </mxCell>
        <mxCell id="O49vUyPkRiIR8w3HlRlj-49" value="To do app website" style="whiteSpace=wrap;html=1;aspect=fixed;" parent="1" vertex="1">
          <mxGeometry x="175" y="40" width="80" height="80" as="geometry" />
        </mxCell>
        <mxCell id="O49vUyPkRiIR8w3HlRlj-52" style="edgeStyle=orthogonalEdgeStyle;rounded=0;orthogonalLoop=1;jettySize=auto;html=1;exitX=0.002;exitY=0.378;exitDx=0;exitDy=0;entryX=1.063;entryY=0.375;entryDx=0;entryDy=0;entryPerimeter=0;exitPerimeter=0;" parent="1" source="O49vUyPkRiIR8w3HlRlj-1" target="O49vUyPkRiIR8w3HlRlj-49" edge="1">
          <mxGeometry relative="1" as="geometry" />
        </mxCell>
        <mxCell id="O49vUyPkRiIR8w3HlRlj-56" style="edgeStyle=orthogonalEdgeStyle;rounded=0;orthogonalLoop=1;jettySize=auto;html=1;exitX=-0.025;exitY=0.386;exitDx=0;exitDy=0;entryX=1.019;entryY=0.386;entryDx=0;entryDy=0;entryPerimeter=0;exitPerimeter=0;" parent="1" source="O49vUyPkRiIR8w3HlRlj-2" target="O49vUyPkRiIR8w3HlRlj-1" edge="1">
          <mxGeometry relative="1" as="geometry" />
        </mxCell>
        <mxCell id="O49vUyPkRiIR8w3HlRlj-57" style="edgeStyle=orthogonalEdgeStyle;rounded=0;orthogonalLoop=1;jettySize=auto;html=1;exitX=-0.05;exitY=0.867;exitDx=0;exitDy=0;entryX=1.038;entryY=0.873;entryDx=0;entryDy=0;entryPerimeter=0;exitPerimeter=0;" parent="1" source="O49vUyPkRiIR8w3HlRlj-2" target="O49vUyPkRiIR8w3HlRlj-1" edge="1">
          <mxGeometry relative="1" as="geometry" />
        </mxCell>
      </root>
    </mxGraphModel>
  </diagram>
</mxfile>
